<svg fill="none" height="24" viewBox="0 0 24 24" width="24" xmlns="http://www.w3.org/2000/svg"><g stroke="#141b34" stroke-width="1.5"><path d="m12 22c5.5228 0 10-4.4772 10-10 0-5.52285-4.4772-10-10-10-5.52285 0-10 4.47715-10 10 0 1.3789.27907 2.6926.78382 3.8877.27896.6604.41844.9907.43571 1.2403s-.05619.5241-.20311 1.0732l-1.01642 3.7988 3.79877-1.0164c.54911-.1469.82367-.2204 1.07325-.2031.24959.0172.57983.1567 1.24033.4357 1.1951.5047 2.50875.7838 3.88765.7838z" stroke-linejoin="round"/><path d="m8.58815 12.3773.87094-1.0817c.36707-.4559.82081-.8803.85641-1.48734.0089-.15332-.0989-.84169-.3147-2.2184-.08479-.54105-.58994-.58986-1.02748-.58986-.57018 0-.85527 0-1.13837.12931-.35781.16344-.72516.623-.80578 1.00802-.06378.30463-.01638.51454.07842.93436.40264 1.78311 1.34722 3.54411 2.81189 5.00881 1.46472 1.4647 3.22572 2.4093 5.00882 2.8119.4198.0948.6297.1422.9344.0784.385-.0806.8445-.4479 1.008-.8058.1293-.2831.1293-.5681.1293-1.1383 0-.4376-.0488-.9427-.5899-1.0275-1.3767-.2158-2.065-.3236-2.2184-.3147-.607.0356-1.0314.4893-1.4873.8564l-1.0817.8709"/></g></svg>